<svg width="241" height="104" viewBox="0 0 241 104" fill="none" xmlns="http://www.w3.org/2000/svg">
<path d="M150 31.5C150 48.897 135.897 63 118.5 63C101.103 63 87 48.897 87 31.5C87 14.103 101.103 0 118.5 0C135.897 0 150 14.103 150 31.5Z" fill="black"/>
<path d="M230.448 103.359C228.258 103.359 226.308 102.984 224.598 102.234C222.888 101.484 221.538 100.464 220.548 99.1743C219.558 97.8543 219.003 96.3843 218.883 94.7643H226.488C226.578 95.6343 226.983 96.3393 227.703 96.8793C228.423 97.4193 229.308 97.6893 230.358 97.6893C231.318 97.6893 232.053 97.5093 232.563 97.1493C233.103 96.7593 233.373 96.2643 233.373 95.6643C233.373 94.9443 232.998 94.4193 232.248 94.0893C231.498 93.7293 230.283 93.3393 228.603 92.9193C226.803 92.4993 225.303 92.0643 224.103 91.6143C222.903 91.1343 221.868 90.3993 220.998 89.4093C220.128 88.3893 219.693 87.0243 219.693 85.3143C219.693 83.8743 220.083 82.5693 220.863 81.3993C221.673 80.1993 222.843 79.2543 224.373 78.5643C225.933 77.8743 227.778 77.5293 229.908 77.5293C233.058 77.5293 235.533 78.3093 237.333 79.8693C239.163 81.4293 240.213 83.4993 240.483 86.0793H233.373C233.253 85.2093 232.863 84.5193 232.203 84.0093C231.573 83.4993 230.733 83.2443 229.683 83.2443C228.783 83.2443 228.093 83.4243 227.613 83.7843C227.133 84.1143 226.893 84.5793 226.893 85.1793C226.893 85.8993 227.268 86.4393 228.018 86.7993C228.798 87.1593 229.998 87.5193 231.618 87.8793C233.478 88.3593 234.993 88.8393 236.163 89.3193C237.333 89.7693 238.353 90.5193 239.223 91.5693C240.123 92.5893 240.588 93.9693 240.618 95.7093C240.618 97.1793 240.198 98.4993 239.358 99.6693C238.548 100.809 237.363 101.709 235.803 102.369C234.273 103.029 232.488 103.359 230.448 103.359Z" fill="black"/>
<path d="M188.156 90.3992C188.156 87.8192 188.636 85.5542 189.596 83.6042C190.586 81.6542 191.921 80.1542 193.601 79.1042C195.281 78.0542 197.156 77.5292 199.226 77.5292C200.876 77.5292 202.376 77.8742 203.726 78.5642C205.106 79.2542 206.186 80.1842 206.966 81.3542V69.6992H214.661V102.999H206.966V99.3992C206.246 100.599 205.211 101.559 203.861 102.279C202.541 102.999 200.996 103.359 199.226 103.359C197.156 103.359 195.281 102.834 193.601 101.784C191.921 100.704 190.586 99.1892 189.596 97.2392C188.636 95.2592 188.156 92.9792 188.156 90.3992ZM206.966 90.4442C206.966 88.5242 206.426 87.0092 205.346 85.8992C204.296 84.7892 203.006 84.2342 201.476 84.2342C199.946 84.2342 198.641 84.7892 197.561 85.8992C196.511 86.9792 195.986 88.4792 195.986 90.3992C195.986 92.3192 196.511 93.8492 197.561 94.9892C198.641 96.0992 199.946 96.6542 201.476 96.6542C203.006 96.6542 204.296 96.0992 205.346 94.9892C206.426 93.8792 206.966 92.3642 206.966 90.4442Z" fill="black"/>
<path d="M174.667 77.6191C177.607 77.6191 179.947 78.5791 181.687 80.4991C183.457 82.3891 184.342 84.9991 184.342 88.3291V102.999H176.692V89.3641C176.692 87.6841 176.257 86.3791 175.387 85.4491C174.517 84.5191 173.347 84.0541 171.877 84.0541C170.407 84.0541 169.237 84.5191 168.367 85.4491C167.497 86.3791 167.062 87.6841 167.062 89.3641V102.999H159.367V77.8891H167.062V81.2191C167.842 80.1091 168.892 79.2391 170.212 78.6091C171.532 77.9491 173.017 77.6191 174.667 77.6191Z" fill="black"/>
<path d="M149.965 75.2801C148.615 75.2801 147.505 74.8901 146.635 74.1101C145.795 73.3001 145.375 72.3101 145.375 71.1401C145.375 69.9401 145.795 68.9501 146.635 68.1701C147.505 67.3601 148.615 66.9551 149.965 66.9551C151.285 66.9551 152.365 67.3601 153.205 68.1701C154.075 68.9501 154.51 69.9401 154.51 71.1401C154.51 72.3101 154.075 73.3001 153.205 74.1101C152.365 74.8901 151.285 75.2801 149.965 75.2801ZM153.79 77.8901V103H146.095V77.8901H153.79Z" fill="black"/>
<path d="M130.501 77.6191C133.621 77.6191 136.096 78.5641 137.926 80.4541C139.786 82.3441 140.716 84.9691 140.716 88.3291V102.999H133.066V89.3641C133.066 87.7441 132.631 86.4991 131.761 85.6291C130.921 84.7291 129.751 84.2791 128.251 84.2791C126.751 84.2791 125.566 84.7291 124.696 85.6291C123.856 86.4991 123.436 87.7441 123.436 89.3641V102.999H115.786V89.3641C115.786 87.7441 115.351 86.4991 114.481 85.6291C113.641 84.7291 112.471 84.2791 110.971 84.2791C109.471 84.2791 108.286 84.7291 107.416 85.6291C106.576 86.4991 106.156 87.7441 106.156 89.3641V102.999H98.4609V77.8891H106.156V81.0391C106.936 79.9891 107.956 79.1641 109.216 78.5641C110.476 77.9341 111.901 77.6191 113.491 77.6191C115.381 77.6191 117.061 78.0241 118.531 78.8341C120.031 79.6441 121.201 80.7991 122.041 82.2991C122.911 80.9191 124.096 79.7941 125.596 78.9241C127.096 78.0541 128.731 77.6191 130.501 77.6191Z" fill="black"/>
<path d="M89.0588 75.2801C87.7088 75.2801 86.5988 74.8901 85.7288 74.1101C84.8888 73.3001 84.4688 72.3101 84.4688 71.1401C84.4688 69.9401 84.8888 68.9501 85.7288 68.1701C86.5988 67.3601 87.7088 66.9551 89.0588 66.9551C90.3788 66.9551 91.4588 67.3601 92.2988 68.1701C93.1688 68.9501 93.6038 69.9401 93.6038 71.1401C93.6038 72.3101 93.1688 73.3001 92.2988 74.1101C91.4588 74.8901 90.3788 75.2801 89.0588 75.2801ZM92.8838 77.8901V103H85.1888V77.8901H92.8838Z" fill="black"/>
<path d="M80.9025 96.4745V103H76.9875C74.1975 103 72.0225 102.325 70.4625 100.975C68.9025 99.5945 68.1225 97.3595 68.1225 94.2695V84.2795H65.0625V77.8895H68.1225V71.7695H75.8175V77.8895H80.8575V84.2795H75.8175V94.3595C75.8175 95.1095 75.9975 95.6495 76.3575 95.9795C76.7175 96.3095 77.3175 96.4745 78.1575 96.4745H80.9025Z" fill="black"/>
<path d="M55.3512 82.0741C56.2512 80.6941 57.3762 79.6141 58.7262 78.8341C60.0762 78.0241 61.5762 77.6191 63.2262 77.6191V85.7641H61.1113C59.1913 85.7641 57.7512 86.1841 56.7912 87.0241C55.8312 87.8341 55.3512 89.2741 55.3512 91.3441V102.999H47.6562V77.8891H55.3512V82.0741Z" fill="black"/>
<path d="M30.4366 103.359C27.9766 103.359 25.7566 102.834 23.7766 101.784C21.8266 100.734 20.2816 99.2343 19.1416 97.2843C18.0316 95.3343 17.4766 93.0543 17.4766 90.4443C17.4766 87.8643 18.0466 85.5993 19.1866 83.6493C20.3266 81.6693 21.8866 80.1543 23.8666 79.1043C25.8466 78.0543 28.0666 77.5293 30.5266 77.5293C32.9866 77.5293 35.2066 78.0543 37.1866 79.1043C39.1666 80.1543 40.7266 81.6693 41.8666 83.6493C43.0066 85.5993 43.5766 87.8643 43.5766 90.4443C43.5766 93.0243 42.9916 95.3043 41.8216 97.2843C40.6816 99.2343 39.1066 100.734 37.0966 101.784C35.1166 102.834 32.8966 103.359 30.4366 103.359ZM30.4366 96.6993C31.9066 96.6993 33.1516 96.1593 34.1716 95.0793C35.2216 93.9993 35.7466 92.4543 35.7466 90.4443C35.7466 88.4343 35.2366 86.8893 34.2166 85.8093C33.2266 84.7293 31.9966 84.1893 30.5266 84.1893C29.0266 84.1893 27.7816 84.7293 26.7916 85.8093C25.8016 86.8593 25.3066 88.4043 25.3066 90.4443C25.3066 92.4543 25.7866 93.9993 26.7466 95.0793C27.7366 96.1593 28.9666 96.6993 30.4366 96.6993Z" fill="black"/>
<path d="M22.5 84.2807H11.2506V103.001H3.55562V84.2807H0.765625V77.8907H3.55562V77.1707C3.55562 74.0807 4.44063 71.7407 6.21063 70.1507C7.98063 68.5307 10.5756 67.7207 13.9956 67.7207C14.5656 67.7207 14.9856 67.7357 15.2556 67.7657V74.2907C13.7856 74.2007 12.7506 74.4107 12.1506 74.9207C11.5506 75.4307 11.2506 76.3457 11.2506 77.6657V77.8907L30 77.6657L22.5 84.2807Z" fill="black"/>
<path fill-rule="evenodd" clip-rule="evenodd" d="M116.98 10.1396C117.197 10.2562 117.377 10.4288 117.502 10.6388C117.627 10.8489 117.692 11.0886 117.689 11.3321V22.6695C117.689 22.8742 117.642 23.0761 117.551 23.26C117.459 23.4438 117.327 23.6045 117.163 23.73L113.397 26.6034C115.168 27.8201 117.689 29.5428 117.689 32.0004C117.689 34.6032 115.391 36.4404 113.33 37.58L117.123 40.2334C117.48 40.4908 117.689 40.8935 117.689 41.3335V52.6709C117.689 53.1638 117.426 53.617 116.993 53.848C116.783 53.9596 116.545 54.0115 116.306 53.9979C116.067 53.9843 115.837 53.9058 115.641 53.771L101.204 43.7801C100.241 43.1398 99.4482 42.2816 98.8908 41.2772C98.3334 40.2729 98.028 39.1515 98 38.0069C98 36.3633 98.7363 34.3832 101.19 32.0532C99.3141 30.4735 98 28.5594 98 25.9962C98 22.9292 101.61 20.3 103.828 18.8897L115.601 10.2562C115.797 10.1125 116.03 10.0254 116.274 10.0048C116.517 9.98423 116.762 10.0309 116.98 10.1396ZM103.567 22.3461C102.607 23.1228 100.626 24.5859 100.626 25.9962C100.626 27.9631 101.833 29.1798 103.25 30.3305L107.188 27.7827L109.814 29.336L105.456 31.9894L110.862 35.8331C112.308 35.2237 115.063 33.8904 115.063 32.0004C115.063 29.9961 111.835 28.753 110.405 27.7827C108.134 26.2294 105.037 24.7795 103.578 22.3461H103.567ZM103.303 33.6968C100.916 35.8441 100.626 37.283 100.626 38.0069C100.626 38.9529 101.112 40.5041 102.661 41.5667H102.674L103.79 42.3434C104.146 41.3851 104.705 40.5123 105.429 39.7826C106.152 39.0529 107.025 38.4829 107.989 38.1103L109.93 40.0002C108.357 40.6999 106.728 42.1102 106.427 42.7834C106.251 43.1647 106.17 43.5818 106.19 44.0001L115.063 50.1474V42.031C111.13 39.2717 107.21 36.4936 103.303 33.6968ZM105.717 20.7928C106.61 22.6827 109.432 23.9258 111.085 25.0391L115.063 21.9963V13.9459L105.717 20.806V20.7928ZM121.009 10.1528C121.217 10.0423 121.452 9.98996 121.688 10.0016C121.924 10.0132 122.152 10.0884 122.348 10.2188L136.129 19.5629C138.427 21.103 140 23.1096 140 25.9962C140 28.3636 138.492 30.3569 136.85 31.897C138.293 33.0631 140 35.0036 140 38.0069C140 41.7603 137.231 43.5601 135.406 44.7372L134.815 45.1112C133.818 45.7976 126.089 51.144 122.375 53.771C122.178 53.9058 121.948 53.9843 121.71 53.9979C121.471 54.0115 121.233 53.9596 121.022 53.848C120.808 53.7327 120.629 53.5625 120.504 53.3554C120.379 53.1483 120.313 52.9119 120.313 52.6709V41.3335C120.313 40.9199 120.509 40.5195 120.837 40.2708L124.525 37.4634C122.479 36.2093 120.313 34.7704 120.313 32.0004C120.313 29.5692 122.845 27.6793 124.579 26.3966L120.877 23.7564C120.703 23.6322 120.561 23.4689 120.463 23.28C120.364 23.091 120.313 22.8818 120.313 22.6695V11.3321C120.309 11.0934 120.372 10.8583 120.495 10.6525C120.618 10.4468 120.796 10.2785 121.009 10.166V10.1528ZM126.863 28.0159C125.853 28.7398 122.937 30.4471 122.937 32.0004C122.937 34.15 126.141 35.3403 127.546 36.1939L127.597 36.2203C130.065 37.8925 133.148 39.3138 134.764 41.954C136.285 40.9067 137.374 39.9232 137.374 38.0069C137.374 35.8969 136.024 34.5636 134.777 33.6461L130.812 36.6736L128.189 35.3403L132.519 32.04L126.875 28.0269L126.863 28.0159ZM134.672 30.3195L122.937 21.9699V13.8161L131.404 19.5497C132.782 20.4826 128.726 23.5628 128.189 24.0028L130.812 25.3361C132.285 24.1326 133.385 23.3164 134.054 21.3494L134.686 21.7763C136.221 22.8104 137.376 24.016 137.376 25.9962C137.376 27.7563 135.879 29.2304 134.672 30.3195ZM132.571 43.4303C131.39 41.3599 128.804 40.2466 126.928 38.9639L122.939 42.0068V50.121L132.584 43.4303H132.571Z" fill="white"/>
</svg>
